<svg width="44" height="44" viewBox="0 0 44 44" fill="none" xmlns="http://www.w3.org/2000/svg">
<g clip-path="url(#clip0_52_183)">
<path d="M36.6667 44H7.33333C3.3 44 0 40.7 0 36.6667V7.33333C0 3.3 3.3 0 7.33333 0H36.6667C40.7 0 44 3.3 44 7.33333V36.6667C44 40.7 40.7 44 36.6667 44ZM7.33333 3.66667C5.31667 3.66667 3.66667 5.31667 3.66667 7.33333V36.6667C3.66667 38.6833 5.31667 40.3333 7.33333 40.3333H36.6667C38.6833 40.3333 40.3333 38.6833 40.3333 36.6667V7.33333C40.3333 5.31667 38.6833 3.66667 36.6667 3.66667H7.33333Z" fill="black"/>
<path d="M31.1667 14.6667H12.8333C11.7333 14.6667 11 13.9333 11 12.8333C11 11.7333 11.7333 11 12.8333 11H31.1667C32.2667 11 33 11.7333 33 12.8333C33 13.9333 32.2667 14.6667 31.1667 14.6667Z" fill="black"/>
<path d="M12.8333 16.5C11.7333 16.5 11 15.7667 11 14.6667V12.8333C11 11.7333 11.7333 11 12.8333 11C13.9333 11 14.6667 11.7333 14.6667 12.8333V14.6667C14.6667 15.7667 13.9333 16.5 12.8333 16.5ZM31.1667 16.5C30.0667 16.5 29.3333 15.7667 29.3333 14.6667V12.8333C29.3333 11.7333 30.0667 11 31.1667 11C32.2667 11 33 11.7333 33 12.8333V14.6667C33 15.7667 32.2667 16.5 31.1667 16.5ZM22 33C20.9 33 20.1667 32.2667 20.1667 31.1667V12.8333C20.1667 11.7333 20.9 11 22 11C23.1 11 23.8333 11.7333 23.8333 12.8333V31.1667C23.8333 32.2667 23.1 33 22 33Z" fill="black"/>
<path d="M23.8333 33H20.1666C19.0666 33 18.3333 32.2667 18.3333 31.1667C18.3333 30.0667 19.0666 29.3333 20.1666 29.3333H23.8333C24.9333 29.3333 25.6666 30.0667 25.6666 31.1667C25.6666 32.2667 24.9333 33 23.8333 33Z" fill="black"/>
</g>
<defs>
<clipPath id="clip0_52_183">
<rect width="44" height="44" fill="white"/>
</clipPath>
</defs>
</svg>
