<svg width="22" height="22" viewBox="0 0 22 22" fill="none" xmlns="http://www.w3.org/2000/svg">
<g clip-path="url(#clip0_44_165)">
<path d="M13.1807 16.8331C13.1807 18.028 12.2087 19 11.0139 19C9.8191 19 8.84705 18.028 8.84705 16.8331C8.84705 15.6383 9.8191 14.6663 11.0139 14.6663C12.2087 14.6663 13.1807 15.6383 13.1807 16.8331ZM9.09786 5.81469L9.46622 13.182C9.48353 13.5279 9.76907 13.7996 10.1155 13.7996H11.9123C12.2587 13.7996 12.5443 13.5279 12.5616 13.182L12.9299 5.81469C12.9485 5.44337 12.6525 5.13216 12.2807 5.13216H9.7471C9.37532 5.13216 9.07931 5.44337 9.09786 5.81469Z" fill="black"/>
</g>
<circle cx="11" cy="11" r="10" stroke="black" stroke-width="2"/>
<defs>
<clipPath id="clip0_44_165">
<rect width="13.8678" height="13.8678" fill="white" transform="translate(4.08008 5.13216)"/>
</clipPath>
</defs>
</svg>
