<svg width="17" height="17" viewBox="0 0 17 17" fill="none" xmlns="http://www.w3.org/2000/svg">
<g clip-path="url(#clip0_66_72)">
<path d="M-1.10893e-05 2.65626C-1.10893e-05 3.50626 0.743739 4.25001 1.59374 4.25001C2.44374 4.25001 3.18749 3.50626 3.18749 2.65626C3.18749 1.80626 2.44374 1.06251 1.59374 1.06251C0.743739 1.06251 -1.10893e-05 1.80626 -1.10893e-05 2.65626ZM-1.10893e-05 7.96876C-1.10893e-05 8.81876 0.743739 9.56251 1.59374 9.56251C2.44374 9.56251 3.18749 8.81876 3.18749 7.96876C3.18749 7.11876 2.44374 6.37501 1.59374 6.37501C0.743739 6.37501 -1.10893e-05 7.11876 -1.10893e-05 7.96876ZM-1.10893e-05 13.2813C-1.10893e-05 14.1313 0.743739 14.875 1.59374 14.875C2.44374 14.875 3.18749 14.1313 3.18749 13.2813C3.18749 12.4313 2.44374 11.6875 1.59374 11.6875C0.743739 11.6875 -1.10893e-05 12.4313 -1.10893e-05 13.2813ZM5.31249 1.06251H17V4.25001H5.31249V1.06251ZM5.31249 6.37501H17V9.56251H5.31249V6.37501ZM5.31249 11.6875H17V14.875H5.31249V11.6875Z" fill="black"/>
</g>
<defs>
<clipPath id="clip0_66_72">
<rect width="16.0819" height="16.0819" fill="white" transform="scale(1.05709)"/>
</clipPath>
</defs>
</svg>
