<svg width="17" height="17" viewBox="0 0 17 17" fill="none" xmlns="http://www.w3.org/2000/svg">
<g clip-path="url(#clip0_35_202)">
<path d="M9.56247 4.51562V0H2.92186C2.48026 0 2.12498 0.355273 2.12498 0.796874V16.2031C2.12498 16.6447 2.48026 17 2.92186 17H14.0781C14.5197 17 14.875 16.6447 14.875 16.2031V5.31249H10.3593C9.92106 5.31249 9.56247 4.9539 9.56247 4.51562ZM11.4584 8.49998H12.2519C12.5076 8.49998 12.6968 8.73573 12.6404 8.98807L11.3787 14.5662C11.3388 14.7488 11.1761 14.875 10.9902 14.875H9.72849C9.54587 14.875 9.38649 14.7488 9.34333 14.5728C8.48669 11.1363 8.65271 11.8767 8.49333 10.9039H8.47673C8.44021 11.3787 8.39704 11.4816 7.62673 14.5728C7.58357 14.7488 7.42419 14.875 7.24158 14.875H6.00974C5.82381 14.875 5.66111 14.7455 5.62127 14.5629L4.36619 8.98475C4.30975 8.73573 4.499 8.49998 4.75467 8.49998H5.56814C5.7574 8.49998 5.92341 8.6328 5.95994 8.82205C6.47791 11.4119 6.62732 12.4578 6.6572 12.8795C6.71033 12.5408 6.89958 11.7937 7.63337 8.80545C7.67654 8.62616 7.83591 8.5033 8.02185 8.5033H8.98806C9.17399 8.5033 9.33337 8.62948 9.37653 8.80877C10.1734 12.1424 10.3328 12.926 10.3593 13.1052C10.3527 12.7334 10.273 12.5142 11.0765 8.81541C11.1097 8.62948 11.2724 8.49998 11.4584 8.49998ZM14.875 4.04745V4.24999H10.625V0H10.8275C11.04 0 11.2425 0.0830077 11.392 0.232421L14.6425 3.48632C14.792 3.63574 14.875 3.83827 14.875 4.04745Z" fill="#0803CF"/>
</g>
<defs>
<clipPath id="clip0_35_202">
<rect width="16.377" height="16.377" fill="white" transform="scale(1.03804)"/>
</clipPath>
</defs>
</svg>
