<svg width="18" height="16" viewBox="0 0 18 16" fill="none" xmlns="http://www.w3.org/2000/svg">
<path d="M10.1777 13.9094L9.39727 14.6031C9.0668 14.8969 8.53242 14.8969 8.20547 14.6031L1.3711 8.53126C1.04063 8.23751 1.04063 7.76251 1.3711 7.47189L8.20547 1.39689C8.53594 1.10314 9.07032 1.10314 9.39727 1.39689L10.1777 2.09064C10.5117 2.38751 10.5047 2.87189 10.1637 3.16251L5.92735 6.75001H16.0313C16.4988 6.75001 16.875 7.08439 16.875 7.50001V8.50001C16.875 8.91564 16.4988 9.25001 16.0313 9.25001H5.92735L10.1637 12.8375C10.5082 13.1281 10.5152 13.6125 10.1777 13.9094Z" fill="black"/>
</svg>
