<svg width="18" height="18" viewBox="0 0 18 18" fill="none" xmlns="http://www.w3.org/2000/svg">
<g clip-path="url(#clip0_34_133)">
<path d="M8.64496 9.00351C8.46918 8.44101 8.4727 7.35468 8.57465 7.35468C8.86996 7.35468 8.84184 8.65195 8.64496 9.00351ZM8.5852 10.6629C8.31449 11.373 7.977 12.1851 7.58676 12.8672C8.23012 12.6211 8.95785 12.2625 9.79809 12.0973C9.3516 11.7598 8.9227 11.2746 8.5852 10.6629ZM5.277 15.0504C5.277 15.0785 5.74106 14.8605 6.50395 13.6371C6.2684 13.8586 5.4809 14.4984 5.277 15.0504ZM10.9688 5.625H15.75V17.1562C15.75 17.6238 15.3739 18 14.9063 18H3.0938C2.62622 18 2.25005 17.6238 2.25005 17.1562V0.843749C2.25005 0.376172 2.62622 0 3.0938 0H10.125V4.78125C10.125 5.24531 10.5047 5.625 10.9688 5.625ZM10.6875 11.6648C9.98442 11.2359 9.51684 10.6453 9.18637 9.77343C9.34457 9.12304 9.59418 8.13515 9.40434 7.5164C9.2391 6.48281 7.91371 6.58476 7.72387 7.27734C7.54809 7.9207 7.70981 8.82773 8.00864 9.98437C7.60082 10.9547 6.99965 12.2555 6.57426 13.0008C6.57075 13.0008 6.57075 13.0043 6.56723 13.0043C5.6145 13.493 3.97973 14.5687 4.65122 15.3949C4.84809 15.6375 5.21372 15.7465 5.40708 15.7465C6.03637 15.7465 6.66215 15.1137 7.55512 13.5738C8.46215 13.275 9.45707 12.9023 10.3325 12.7582C11.0954 13.173 11.9883 13.4437 12.5825 13.4437C13.609 13.4437 13.6793 12.3187 13.275 11.918C12.7864 11.4398 11.3661 11.5769 10.6875 11.6648ZM15.5039 3.6914L12.0586 0.246094C11.9004 0.0878905 11.686 0 11.461 0H11.25V4.5H15.75V4.28554C15.75 4.06406 15.6621 3.84961 15.5039 3.6914ZM12.8989 12.6668C13.043 12.5719 12.811 12.2484 11.3942 12.3504C12.6985 12.9058 12.8989 12.6668 12.8989 12.6668Z" fill="#FF0000"/>
</g>
<defs>
<clipPath id="clip0_34_133">
<rect width="17.4918" height="17.4918" fill="white" transform="scale(1.02905)"/>
</clipPath>
</defs>
</svg>
