<svg width="25" height="25" viewBox="0 0 25 25" fill="none" xmlns="http://www.w3.org/2000/svg">
<g clip-path="url(#clip0_67_99)">
<path d="M17.1875 21.875V23.8281C17.1875 24.4753 16.6628 25 16.0156 25H2.73438C2.08716 25 1.5625 24.4753 1.5625 23.8281V5.85938C1.5625 5.21216 2.08716 4.6875 2.73438 4.6875H6.25V19.1406C6.25 20.6484 7.47661 21.875 8.98438 21.875H17.1875ZM17.1875 5.07813V0H8.98438C8.33716 0 7.8125 0.524658 7.8125 1.17188V19.1406C7.8125 19.7878 8.33716 20.3125 8.98438 20.3125H22.2656C22.9128 20.3125 23.4375 19.7878 23.4375 19.1406V6.25H18.3594C17.7148 6.25 17.1875 5.72266 17.1875 5.07813ZM23.0943 3.56304L19.8745 0.343213C19.6547 0.123458 19.3566 1.62498e-06 19.0459 0L18.75 0V4.6875H23.4375V4.39165C23.4375 4.08086 23.314 3.7828 23.0943 3.56304Z" fill="#828280"/>
</g>
<defs>
<clipPath id="clip0_67_99">
<rect width="24.448" height="24.448" fill="white" transform="scale(1.02258)"/>
</clipPath>
</defs>
</svg>
