<svg width="25" height="25" viewBox="0 0 25 25" fill="none" xmlns="http://www.w3.org/2000/svg">
<g clip-path="url(#clip0_77_112)">
<path d="M7.8125 8.98438C7.8125 7.47661 9.03916 6.25 10.5469 6.25H17.1875V2.73438C17.1875 2.08716 16.6628 1.5625 16.0156 1.5625H12.0796C11.5384 0.629395 10.5292 0 9.375 0C8.22085 0 7.21162 0.629395 6.67041 1.5625H2.73438C2.08716 1.5625 1.5625 2.08716 1.5625 2.73438V19.1406C1.5625 19.7878 2.08716 20.3125 2.73438 20.3125H7.8125V8.98438ZM9.375 1.95312C10.0222 1.95312 10.5469 2.47778 10.5469 3.125C10.5469 3.77222 10.0222 4.29688 9.375 4.29688C8.72778 4.29688 8.20312 3.77222 8.20312 3.125C8.20312 2.47778 8.72778 1.95312 9.375 1.95312ZM18.3594 14.0625H23.4375V23.8281C23.4375 24.4753 22.9128 25 22.2656 25H10.5469C9.89966 25 9.375 24.4753 9.375 23.8281V8.98438C9.375 8.33716 9.89966 7.8125 10.5469 7.8125H17.1875V12.8906C17.1875 13.5352 17.7148 14.0625 18.3594 14.0625ZM23.4375 12.2042V12.5H18.75V7.8125H19.0458C19.3566 7.8125 19.6547 7.93596 19.8745 8.15571L23.0942 11.3755C23.314 11.5953 23.4375 11.8933 23.4375 12.2042Z" fill="#828280"/>
</g>
<defs>
<clipPath id="clip0_77_112">
<rect width="25" height="25" fill="white"/>
</clipPath>
</defs>
</svg>
