<svg width="24" height="24" viewBox="0 0 24 24" fill="none" xmlns="http://www.w3.org/2000/svg">
<path d="M16.729 4.271C16.542 4.083 16.288 3.97696 16.0228 3.97621C15.7577 3.97546 15.5031 4.08006 15.315 4.267C15.2158 4.36813 15.1391 4.48912 15.09 4.622C14.258 6.358 13.342 7.337 12.186 7.915C10.889 8.555 9.4 9 7 9C6.80258 9.00093 6.6098 9.05993 6.44568 9.16964C6.28155 9.27936 6.15334 9.43494 6.077 9.617C6.00143 9.7998 5.98171 10.0009 6.02033 10.1949C6.05895 10.3889 6.15418 10.5671 6.294 10.707L9.537 13.95L5 20L11.05 15.463L14.292 18.705C14.3849 18.7986 14.4958 18.8725 14.618 18.922C14.74 18.973 14.87 19 15 19C15.13 19 15.26 18.973 15.382 18.922C15.5649 18.847 15.7213 18.7193 15.8313 18.5551C15.9414 18.3909 16.0001 18.1977 16 18C16 15.6 16.444 14.111 17.083 12.834C17.66 11.678 18.639 10.762 20.376 9.93C20.5088 9.88134 20.6296 9.8046 20.73 9.705C20.9169 9.51694 21.0215 9.26234 21.0208 8.99717C21.02 8.73201 20.914 8.478 20.726 8.291L16.729 4.271Z" fill="#050500"/>
</svg>
