<svg width="56" height="56" viewBox="0 0 56 56" fill="none" xmlns="http://www.w3.org/2000/svg">
<g clip-path="url(#clip0_52_188)">
<path d="M28.5456 13.8426L31.0936 11.2946C31.9872 10.4002 33.0483 9.69054 34.2163 9.20628C35.3842 8.72203 36.6361 8.47263 37.9004 8.47234C39.1648 8.47204 40.4168 8.72086 41.585 9.20457C42.7531 9.68828 43.8146 10.3974 44.7086 11.2914C45.6026 12.1855 46.3117 13.2469 46.7955 14.415C47.2792 15.5832 47.528 16.8352 47.5277 18.0996C47.5274 19.3639 47.278 20.6158 46.7937 21.7838C46.3095 22.9517 45.5999 24.0128 44.7054 24.9064L38.5182 31.0936C37.6245 31.9874 36.5634 32.6963 35.3957 33.18C34.2279 33.6637 32.9763 33.9127 31.7123 33.9127C30.4484 33.9127 29.1968 33.6637 28.029 33.18C26.8612 32.6963 25.8002 31.9874 24.9064 31.0936" stroke="black" stroke-width="5" stroke-linecap="round" stroke-linejoin="round"/>
<path d="M27.454 42.1578L24.9064 44.7054C24.0128 45.5998 22.9517 46.3095 21.7838 46.7937C20.6158 47.278 19.3639 47.5274 18.0996 47.5277C16.8352 47.528 15.5832 47.2791 14.4151 46.7954C13.2469 46.3117 12.1855 45.6026 11.2914 44.7086C10.3974 43.8145 9.68829 42.7531 9.20458 41.585C8.72087 40.4168 8.47206 39.1648 8.47235 37.9004C8.47265 36.6361 8.72204 35.3842 9.2063 34.2162C9.69055 33.0483 10.4002 31.9872 11.2946 31.0936L17.4818 24.9064C18.3756 24.0126 19.4366 23.3037 20.6044 22.82C21.7721 22.3363 23.0237 22.0873 24.2877 22.0873C25.5517 22.0873 26.8033 22.3363 27.971 22.82C29.1388 23.3037 30.1998 24.0126 31.0936 24.9064" stroke="black" stroke-width="5" stroke-linecap="round" stroke-linejoin="round"/>
</g>
<defs>
<clipPath id="clip0_52_188">
<rect width="56" height="56" fill="white"/>
</clipPath>
</defs>
</svg>
