<svg width="49" height="65" viewBox="0 0 49 65" fill="none" xmlns="http://www.w3.org/2000/svg">
<path d="M28.4375 17.2656V0H3.04688C1.3584 0 0 1.3584 0 3.04688V61.9531C0 63.6416 1.3584 65 3.04688 65H45.7031C47.3916 65 48.75 63.6416 48.75 61.9531V20.3125H31.4844C29.8086 20.3125 28.4375 18.9414 28.4375 17.2656ZM35.6865 32.5H38.7207C39.6982 32.5 40.4219 33.4014 40.2061 34.3662L35.3818 55.6943C35.2295 56.3926 34.6074 56.875 33.8965 56.875H29.0723C28.374 56.875 27.7646 56.3926 27.5996 55.7197C24.3242 42.5801 24.959 45.4111 24.3496 41.6914H24.2861C24.1465 43.5068 23.9814 43.9004 21.0361 55.7197C20.8711 56.3926 20.2617 56.875 19.5635 56.875H14.8535C14.1426 56.875 13.5205 56.3799 13.3682 55.6816L8.56934 34.3535C8.35352 33.4014 9.07715 32.5 10.0547 32.5H13.165C13.8887 32.5 14.5234 33.0078 14.6631 33.7314C16.6436 43.6338 17.2148 47.6328 17.3291 49.2451C17.5322 47.9502 18.2559 45.0938 21.0615 33.668C21.2266 32.9824 21.8359 32.5127 22.5469 32.5127H26.2412C26.9521 32.5127 27.5615 32.9951 27.7266 33.6807C30.7734 46.4268 31.3828 49.4229 31.4844 50.1084C31.459 48.6865 31.1543 47.8486 34.2266 33.7061C34.3535 32.9951 34.9756 32.5 35.6865 32.5ZM48.75 15.4756V16.25H32.5V0H33.2744C34.0869 0 34.8613 0.317383 35.4326 0.888672L47.8613 13.3301C48.4326 13.9014 48.75 14.6758 48.75 15.4756Z" fill="#0803CF"/>
</svg>
