<svg width="25" height="25" viewBox="0 0 25 25" fill="none" xmlns="http://www.w3.org/2000/svg">
<path d="M17.1631 3.90625H7.83692C7.73979 3.90625 7.64664 3.86767 7.57796 3.79899C7.50929 3.73031 7.4707 3.63716 7.4707 3.54004C7.4707 3.44291 7.50929 3.34977 7.57796 3.28109C7.64664 3.21241 7.73979 3.17383 7.83692 3.17383H17.1631C17.2602 3.17383 17.3534 3.21241 17.422 3.28109C17.4907 3.34977 17.5293 3.44291 17.5293 3.54004C17.5293 3.63716 17.4907 3.73031 17.422 3.79899C17.3534 3.86767 17.2602 3.90625 17.1631 3.90625ZM17.1631 8.30078H7.83692C7.73979 8.30078 7.64664 8.2622 7.57796 8.19352C7.50929 8.12484 7.4707 8.0317 7.4707 7.93457C7.4707 7.83745 7.50929 7.7443 7.57796 7.67562C7.64664 7.60694 7.73979 7.56836 7.83692 7.56836H17.1631C17.2602 7.56836 17.3534 7.60694 17.422 7.67562C17.4907 7.7443 17.5293 7.83745 17.5293 7.93457C17.5293 8.0317 17.4907 8.12484 17.422 8.19352C17.3534 8.2622 17.2602 8.30078 17.1631 8.30078ZM17.1631 6.10352H7.83692C7.73979 6.10352 7.64664 6.06493 7.57796 5.99625C7.50929 5.92758 7.4707 5.83443 7.4707 5.7373C7.4707 5.64018 7.50929 5.54703 7.57796 5.47835C7.64664 5.40968 7.73979 5.37109 7.83692 5.37109H17.1631C17.2602 5.37109 17.3534 5.40968 17.422 5.47835C17.4907 5.54703 17.5293 5.64018 17.5293 5.7373C17.5293 5.83443 17.4907 5.92758 17.422 5.99625C17.3534 6.06493 17.2602 6.10352 17.1631 6.10352ZM0.321779 4.71743L0.839651 4.19956C1.04569 3.99354 1.32513 3.87779 1.6165 3.87779C1.90788 3.87779 2.18732 3.99354 2.39336 4.19956L4.10156 5.90771V1.83105C4.10211 1.3456 4.2952 0.880175 4.63847 0.536903C4.98174 0.193631 5.44716 0.000542803 5.93262 0L19.0674 0C19.5528 0.000542803 20.0183 0.193631 20.3615 0.536903C20.7048 0.880175 20.8979 1.3456 20.8984 1.83105V20.8496H22.8762C22.9733 20.8496 23.0665 20.8882 23.1352 20.9569C23.2038 21.0255 23.2424 21.1187 23.2424 21.2158V23.1689C23.2419 23.6544 23.0488 24.1198 22.7055 24.4631C22.3623 24.8064 21.8968 24.9995 21.4114 25H5.88404C5.87075 25 5.85749 24.9992 5.84429 24.9978C5.37471 24.9745 4.93199 24.7718 4.60765 24.4314C4.28331 24.0911 4.10213 23.6391 4.10156 23.1689V10.051L0.321779 6.27124C0.116047 6.06502 0.000507355 5.78563 0.000507355 5.49434C0.000507355 5.20304 0.116047 4.92365 0.321779 4.71743ZM21.4114 24.2676C21.7026 24.2672 21.9819 24.1514 22.1879 23.9454C22.3938 23.7395 22.5097 23.4602 22.51 23.1689V21.582H7.9104V23.0957C7.9107 23.5207 7.76808 23.9334 7.50547 24.2676H21.4114ZM4.83399 21.2111C4.83399 21.2127 4.83423 21.2142 4.83423 21.2158V23.0957C4.83423 23.4065 4.9577 23.7046 5.17746 23.9243C5.39723 24.1441 5.6953 24.2676 6.00611 24.2676C6.31691 24.2676 6.61497 24.1441 6.83475 23.9243C7.05451 23.7046 7.17798 23.4065 7.17798 23.0957V21.2158C7.17798 21.1187 7.21656 21.0255 7.28524 20.9569C7.35392 20.8882 7.44707 20.8496 7.54419 20.8496C7.55244 20.8496 7.5605 20.8503 7.5686 20.8508C7.57671 20.8503 7.58472 20.8496 7.59302 20.8496H20.166V1.83105C20.1657 1.53978 20.0498 1.26054 19.8439 1.05458C19.6379 0.848614 19.3587 0.732758 19.0674 0.732422H5.93262C5.64135 0.732758 5.3621 0.848614 5.15614 1.05458C4.95018 1.26054 4.83432 1.53978 4.83399 1.83105V6.64014L11.6216 13.4277H17.1631C17.2602 13.4277 17.3534 13.4663 17.422 13.535C17.4907 13.6037 17.5293 13.6968 17.5293 13.7939C17.5293 13.8911 17.4907 13.9842 17.422 14.0529C17.3534 14.1216 17.2602 14.1602 17.1631 14.1602H12.354L13.7872 15.5934C13.7967 15.603 13.8057 15.6131 13.8142 15.6237L13.8151 15.625H17.1631C17.2602 15.625 17.3534 15.6636 17.422 15.7323C17.4907 15.8009 17.5293 15.8941 17.5293 15.9912C17.5293 16.0883 17.4907 16.1815 17.422 16.2502C17.3534 16.3188 17.2602 16.3574 17.1631 16.3574H14.0827L14.5709 17.8223H17.1631C17.2602 17.8223 17.3534 17.8608 17.422 17.9295C17.4907 17.9982 17.5293 18.0914 17.5293 18.1885C17.5293 18.2856 17.4907 18.3787 17.422 18.4474C17.3534 18.5161 17.2602 18.5547 17.1631 18.5547H14.4287C14.4023 18.5546 14.3759 18.5517 14.35 18.546C14.296 18.5532 14.241 18.5478 14.1893 18.5303L11.8587 17.7535C11.8563 17.7527 11.8541 17.7515 11.8518 17.7507C11.83 17.7429 11.809 17.7331 11.7891 17.7214C11.7856 17.7194 11.7821 17.7175 11.7788 17.7153C11.7705 17.71 11.7624 17.7042 11.7543 17.6982C11.7515 17.696 11.7485 17.6941 11.7458 17.6919C11.7352 17.6835 11.7251 17.6745 11.7156 17.665L10.408 16.3574H7.83692C7.73979 16.3574 7.64664 16.3188 7.57796 16.2502C7.50929 16.1815 7.4707 16.0883 7.4707 15.9912C7.4707 15.8941 7.50929 15.8009 7.57796 15.7323C7.64664 15.6636 7.73979 15.625 7.83692 15.625H9.67554L4.83399 10.7834V21.2111ZM13.3682 16.5303L12.6525 17.246L13.7261 17.6039L13.3682 16.5303ZM11.9745 16.8881L13.0103 15.8523L4.20962 7.05161L4.20811 7.05015L3.25098 6.09302L2.21524 7.12881L11.9745 16.8881ZM0.839748 5.75332L1.69727 6.61084L2.73301 5.57505L1.87539 4.71743C1.8414 4.68342 1.80103 4.65644 1.75661 4.63803C1.71218 4.61962 1.66457 4.61015 1.61648 4.61015C1.56839 4.61015 1.52078 4.61962 1.47635 4.63803C1.43193 4.65644 1.39157 4.68342 1.35757 4.71743L0.839651 5.23535C0.771065 5.30407 0.732546 5.3972 0.732546 5.49429C0.732546 5.59138 0.771065 5.6845 0.839651 5.75322L0.839748 5.75332Z" fill="black"/>
</svg>
