<svg width="49" height="65" viewBox="0 0 49 65" fill="none" xmlns="http://www.w3.org/2000/svg">
<path d="M23.0928 32.5127C22.458 30.4814 22.4707 26.5586 22.8389 26.5586C23.9053 26.5586 23.8037 31.2432 23.0928 32.5127ZM22.877 38.5049C21.8994 41.0693 20.6807 44.002 19.2715 46.4648C21.5947 45.5762 24.2227 44.2812 27.2568 43.6846C25.6445 42.4658 24.0957 40.7139 22.877 38.5049ZM10.9307 54.3486C10.9307 54.4502 12.6064 53.6631 15.3613 49.2451C14.5107 50.0449 11.667 52.3555 10.9307 54.3486ZM31.4844 20.3125H48.75V61.9531C48.75 63.6416 47.3916 65 45.7031 65H3.04688C1.3584 65 0 63.6416 0 61.9531V3.04688C0 1.3584 1.3584 0 3.04688 0H28.4375V17.2656C28.4375 18.9414 29.8086 20.3125 31.4844 20.3125ZM30.4688 42.123C27.9297 40.5742 26.2412 38.4414 25.0479 35.293C25.6191 32.9443 26.5205 29.377 25.835 27.1426C25.2383 23.4102 20.4521 23.7783 19.7666 26.2793C19.1318 28.6025 19.7158 31.8779 20.7949 36.0547C19.3223 39.5586 17.1514 44.2559 15.6152 46.9473C15.6025 46.9473 15.6025 46.96 15.5898 46.96C12.1494 48.7246 6.24609 52.6094 8.6709 55.5928C9.38184 56.4688 10.7021 56.8623 11.4004 56.8623C13.6729 56.8623 15.9326 54.5771 19.1572 49.0166C22.4326 47.9375 26.0254 46.5918 29.1865 46.0713C31.9414 47.5693 35.166 48.5469 37.3115 48.5469C41.0186 48.5469 41.2725 44.4844 39.8125 43.0371C38.0479 41.3105 32.9189 41.8057 30.4688 42.123ZM47.8613 13.3301L35.4199 0.888672C34.8486 0.317383 34.0742 0 33.2617 0H32.5V16.25H48.75V15.4756C48.75 14.6758 48.4326 13.9014 47.8613 13.3301ZM38.4541 45.7412C38.9746 45.3984 38.1367 44.2305 33.0205 44.5986C37.7305 46.6045 38.4541 45.7412 38.4541 45.7412Z" fill="#FF0000"/>
</svg>
