<svg width="24" height="24" viewBox="0 0 24 24" fill="none" xmlns="http://www.w3.org/2000/svg">
<path d="M22 0.999998H15C14.4275 0.997652 13.8724 1.19671 13.4318 1.56233C12.9912 1.92795 12.6932 2.43686 12.59 3L11.67 8.05C11.6064 8.40184 11.6209 8.76335 11.7125 9.10896C11.8041 9.45456 11.9705 9.77582 12.2 10.05C12.4307 10.3243 12.7184 10.5451 13.0431 10.6971C13.3677 10.849 13.7215 10.9285 14.08 10.93H17L16.75 11.59C16.5654 12.0794 16.5013 12.606 16.5631 13.1253C16.6248 13.6447 16.8107 14.1416 17.1048 14.574C17.399 15.0065 17.7929 15.3618 18.2533 15.61C18.7137 15.8582 19.227 15.9919 19.75 16C19.9441 16.0015 20.1344 15.9466 20.2977 15.8418C20.4611 15.737 20.5904 15.587 20.67 15.41L22.91 10.35C22.961 10.2398 22.9915 10.1212 23 10V2C23 1.73478 22.8946 1.48043 22.7071 1.29289C22.5196 1.10535 22.2652 0.999998 22 0.999998ZM21 9.73L19.17 13.86C18.9914 13.7628 18.8375 13.626 18.72 13.46C18.6023 13.2934 18.5279 13.1002 18.5035 12.8977C18.479 12.6952 18.5053 12.4898 18.58 12.3L18.96 11.3C19.06 11.0406 19.094 10.7605 19.0591 10.4848C19.0242 10.209 18.9214 9.94626 18.76 9.72C18.601 9.4946 18.3896 9.31128 18.1439 9.18584C17.8983 9.0604 17.6258 8.99662 17.35 9H14.06C13.9936 9.00018 13.9279 8.98598 13.8675 8.95836C13.807 8.93074 13.7533 8.89036 13.71 8.84C13.6324 8.73336 13.6 8.60037 13.62 8.47L14.54 3.47C14.5357 3.40802 14.5446 3.34583 14.566 3.28753C14.5875 3.22923 14.621 3.17613 14.6645 3.13173C14.7079 3.08733 14.7603 3.05264 14.8181 3.02993C14.876 3.00723 14.9379 2.99702 15 3H21V9.73ZM9.94 13.05H7.05L7.3 12.39C7.4819 11.8978 7.54228 11.3689 7.47602 10.8483C7.40975 10.3278 7.2188 9.83089 6.91938 9.39993C6.61996 8.96896 6.22094 8.61665 5.7562 8.37293C5.29147 8.1292 4.77476 8.00127 4.25 8C4.05594 7.99846 3.86563 8.05343 3.70227 8.15819C3.53891 8.26296 3.40956 8.41299 3.33 8.59L1.09 13.65C1.0327 13.7757 1.00205 13.9119 1 14.05V22.05C1 22.3152 1.10536 22.5696 1.29289 22.7571C1.48043 22.9446 1.73478 23.05 2 23.05H9C9.57252 23.0523 10.1276 22.8533 10.5682 22.4877C11.0088 22.122 11.3068 21.6131 11.41 21.05L12.33 16.05C12.3936 15.6982 12.3791 15.3366 12.2875 14.991C12.1959 14.6454 12.0295 14.3242 11.8 14.05C11.5832 13.7562 11.3039 13.5141 10.9823 13.3412C10.6606 13.1683 10.3047 13.0688 9.94 13.05ZM9.46 20.63C9.44283 20.7377 9.38626 20.8352 9.30126 20.9036C9.21626 20.972 9.1089 21.0063 9 21H3V14.27L4.83 10.14C5.0086 10.2372 5.16255 10.374 5.28 10.54C5.39768 10.7066 5.47209 10.8998 5.49653 11.1023C5.52097 11.3048 5.49467 11.5102 5.42 11.7L5.04 12.7C4.94003 12.9593 4.90597 13.2395 4.94088 13.5152C4.97578 13.791 5.07856 14.0537 5.24 14.28C5.39675 14.5091 5.60721 14.6963 5.853 14.8253C6.09879 14.9543 6.37242 15.0211 6.65 15.02H9.94C10.0064 15.0198 10.0721 15.034 10.1325 15.0616C10.193 15.0893 10.2467 15.1296 10.29 15.18C10.3676 15.2866 10.4 15.4196 10.38 15.55L9.46 20.63Z" fill="black"/>
</svg>
