<svg width="229" height="227" viewBox="0 0 229 227" fill="none" xmlns="http://www.w3.org/2000/svg">
<g opacity="0.8" clip-path="url(#clip0_1_11)">
<path d="M203.452 172.753L203.448 172.856L208.824 227H169.592L164.507 193.746L162.268 226.147L121.98 225.721L126.26 183.182L129.899 163.464V163.459L130.445 160.492H202.382L202.476 161.566L203.452 172.753Z" fill="#2F2E41"/>
<path d="M99.7731 204.141C103.928 204.862 108.261 200.406 109.45 194.187C109.971 191.465 109.803 188.857 109.101 186.724L109.738 183.139L120.429 134.917C120.429 134.917 140.117 97.4103 140.116 90.8989C140.116 84.3875 134.421 81.1943 134.421 81.1943L126.715 81.2629L102.55 137.473L98.1981 179.011L97.494 184.71C96.0474 186.47 94.9242 188.854 94.4037 191.576C93.2141 197.795 95.6181 203.42 99.7731 204.141Z" fill="#FFB6B6"/>
<path d="M178.16 57.9592L170.998 42.1849L147.72 46.0219L146.153 64.5808L178.16 57.9592Z" fill="#FFB6B6"/>
<path opacity="0.1" d="M178.16 57.9592L170.998 42.1849L147.72 46.0219L146.153 64.5808L178.16 57.9592Z" fill="black"/>
<path d="M228.744 90.7868C228.744 90.7868 212.181 61.3699 209.048 58.3855C207.653 57.057 205.46 57.0385 203.455 57.4257L180.398 49.8589L172.583 45.6769L172.068 53.6331L146.411 58.019C146.554 53.167 147.272 51.3214 147.272 51.3214L137.872 61.7962L119.518 70.3228L119.528 70.3996C118.181 70.8474 116.904 71.6136 115.937 72.8808C112.356 77.5705 102.507 134.699 102.507 134.699L123.547 138.962L126.41 121.85L128.471 137.257L130.038 166.034C130.038 166.034 158.687 189.483 172.564 180.956C186.441 172.429 203.452 172.856 203.452 172.856L203.877 159.517C204.179 159.057 204.347 158.787 204.347 158.787L203.9 111.471V98.8801C207.31 103.405 211.425 107.296 216.21 109.119C231.878 115.088 228.744 90.7868 228.744 90.7868Z" fill="#E6E6E6"/>
<path d="M156.926 48.7973C168.753 48.7973 178.34 39.6661 178.34 28.4022C178.34 17.1383 168.753 8.00713 156.926 8.00713C145.099 8.00713 135.511 17.1383 135.511 28.4022C135.511 39.6661 145.099 48.7973 156.926 48.7973Z" fill="#FFB6B6"/>
<path d="M172.288 34.1661C172.288 34.1661 174.151 27.9589 178.34 28.4022C182.53 28.8456 183.461 25.2986 182.53 23.5251C181.599 21.7517 179.737 12.8842 179.737 12.8842C179.737 12.8842 180.668 6.67702 175.082 5.79028C169.495 4.90354 167.633 4.01679 166.702 2.2433C165.771 0.469816 151.805 -1.30367 147.149 1.35656C142.494 4.01679 138.77 9.1208 135.511 10.5591C132.252 11.9975 129.459 14.6577 131.321 19.0914C133.183 23.5251 135.884 32.1965 135.884 32.1965C135.884 32.1965 140.632 30.6191 141.563 33.2793C142.494 35.9395 138.77 32.3926 143.425 25.2986C148.08 18.2047 148.08 11.1107 155.529 13.771C162.978 16.4312 171.357 15.5445 170.426 20.8649C169.495 26.1854 172.288 34.1661 172.288 34.1661Z" fill="#2F2E41"/>
<path d="M170.979 195.85H8.34112C3.74174 195.85 0 192.286 0 187.906V105.627C0 101.247 3.74174 97.6833 8.34112 97.6833H170.979C175.578 97.6833 179.32 101.247 179.32 105.627V187.906C179.32 192.286 175.578 195.85 170.979 195.85Z" fill="white"/>
<path d="M170.979 195.85H8.34112C3.74174 195.85 0 192.286 0 187.906V105.627C0 101.247 3.74174 97.6833 8.34112 97.6833H170.979C175.578 97.6833 179.32 101.247 179.32 105.627V187.906C179.32 192.286 175.578 195.85 170.979 195.85ZM8.34112 99.0099C4.50995 99.0099 1.39291 101.979 1.39291 105.627V187.906C1.39291 191.555 4.50995 194.524 8.34112 194.524H170.979C174.81 194.524 177.927 191.555 177.927 187.906V105.627C177.927 101.979 174.81 99.0099 170.979 99.0099H8.34112Z" fill="#3F3D56"/>
<path d="M158.426 107.633C159.58 107.633 160.516 106.742 160.516 105.643C160.516 104.544 159.58 103.653 158.426 103.653C157.273 103.653 156.337 104.544 156.337 105.643C156.337 106.742 157.273 107.633 158.426 107.633Z" fill="#3F3D56"/>
<path d="M163.998 107.633C165.152 107.633 166.087 106.742 166.087 105.643C166.087 104.544 165.152 103.653 163.998 103.653C162.844 103.653 161.909 104.544 161.909 105.643C161.909 106.742 162.844 107.633 163.998 107.633Z" fill="#3F3D56"/>
<path d="M169.57 107.633C170.724 107.633 171.659 106.742 171.659 105.643C171.659 104.544 170.724 103.653 169.57 103.653C168.416 103.653 167.48 104.544 167.48 105.643C167.48 106.742 168.416 107.633 169.57 107.633Z" fill="#3F3D56"/>
<path d="M11.8397 137.812C11.2637 137.812 10.795 138.259 10.795 138.807C10.795 139.075 10.9035 139.322 11.1004 139.505C11.299 139.699 11.5592 139.802 11.8397 139.802H168.177C168.753 139.802 169.221 139.356 169.221 138.807C169.221 138.54 169.113 138.292 168.916 138.11C168.717 137.916 168.457 137.812 168.177 137.812H11.8397Z" fill="#E6E6E6"/>
<path d="M148.676 137.481V140.134H11.8397C11.4567 140.134 11.1084 139.988 10.8577 139.743C10.6 139.504 10.4468 139.172 10.4468 138.807C10.4468 138.078 11.0736 137.481 11.8397 137.481H148.676Z" fill="#FDF424"/>
<path d="M166.436 132.506H152.507C150.971 132.506 149.721 131.316 149.721 129.853C149.721 128.39 150.971 127.2 152.507 127.2H166.436C167.972 127.2 169.221 128.39 169.221 129.853C169.221 131.316 167.972 132.506 166.436 132.506Z" fill="#E6E6E6"/>
<path d="M75.2002 118.577H12.8844C11.3483 118.577 10.0986 117.387 10.0986 115.924C10.0986 114.461 11.3483 113.271 12.8844 113.271H75.2002C76.7362 113.271 77.986 114.461 77.986 115.924C77.986 117.387 76.7362 118.577 75.2002 118.577Z" fill="#E6E6E6"/>
<path d="M11.8397 167.66C11.2637 167.66 10.795 168.107 10.795 168.655C10.795 168.923 10.9035 169.17 11.1004 169.353C11.299 169.547 11.5592 169.65 11.8397 169.65H168.177C168.753 169.65 169.221 169.204 169.221 168.655C169.221 168.388 169.113 168.14 168.916 167.958C168.717 167.764 168.457 167.66 168.177 167.66H11.8397Z" fill="#E6E6E6"/>
<path d="M95.0491 167.329V169.982H11.8397C11.4567 169.982 11.1084 169.836 10.8577 169.591C10.6 169.352 10.4468 169.02 10.4468 168.655C10.4468 167.926 11.0736 167.329 11.8397 167.329H95.0491Z" fill="#FDF424"/>
<path d="M166.436 162.354H152.507C150.971 162.354 149.721 161.164 149.721 159.701C149.721 158.238 150.971 157.048 152.507 157.048H166.436C167.972 157.048 169.221 158.238 169.221 159.701C169.221 161.164 167.972 162.354 166.436 162.354Z" fill="#E6E6E6"/>
<path d="M190.821 50.3672C202.867 50.3672 212.633 41.2625 212.633 30.0312C212.633 18.8 202.867 9.69527 190.821 9.69527C178.774 9.69527 169.008 18.8 169.008 30.0312C169.008 41.2625 178.774 50.3672 190.821 50.3672Z" fill="#FDF424"/>
<path d="M198.224 19.7736C195.32 24.8095 192.416 29.8455 189.512 34.8814C187.661 31.7671 185.821 28.6472 183.965 25.5353C183.324 24.4606 181.582 25.4272 182.224 26.5046C184.375 30.1121 186.503 33.7315 188.654 37.3389C189.022 37.9557 190.031 37.97 190.395 37.3389C193.585 31.8069 196.775 26.2749 199.965 20.743C200.59 19.659 198.849 18.6888 198.224 19.7736Z" fill="white"/>
<path d="M220.931 83.6344L199.199 73.7335C199.199 73.7335 198.327 67.1067 194.251 64.7431C193.558 63.1688 192.761 61.4394 192.037 60.069C190.246 56.6802 192.932 50.2852 190.694 50.2852C188.456 50.2852 185.147 57.0108 185.322 58.8119C185.457 60.1944 186.657 62.6083 186.904 64.7212C184.175 65.7016 181.973 67.3819 180.526 68.7198C179.273 69.8776 178.807 71.605 179.297 73.2009C180.716 77.8253 184.262 87.3761 189.351 87.3761C196.066 87.3761 197.856 86.0971 197.856 86.0971C197.856 86.0971 211.733 102.724 222.029 104.003C232.325 105.282 220.931 83.6344 220.931 83.6344Z" fill="#FFB6B6"/>
</g>
<defs>
<clipPath id="clip0_1_11">
<rect width="229" height="227" fill="white"/>
</clipPath>
</defs>
</svg>
