<svg width="48" height="48" viewBox="0 0 48 48" fill="none" xmlns="http://www.w3.org/2000/svg">
<g clip-path="url(#clip0_35_228)">
<path d="M25.74 30.15L20.66 25.13L20.72 25.07C24.2 21.19 26.68 16.73 28.14 12.01H34V8H20V4H16V8H2V11.98H24.34C22.9591 15.9387 20.8039 19.5829 18 22.7C16.1771 20.6756 14.6242 18.4235 13.38 16H9.38C10.84 19.26 12.84 22.34 15.34 25.12L5.17 35.17L8 38L18 28L24.22 34.22L25.74 30.15ZM37 20H33L24 44H28L30.25 38H39.75L42 44H46L37 20ZM31.75 34L35 25.33L38.25 34H31.75Z" fill="black"/>
</g>
<defs>
<clipPath id="clip0_35_228">
<rect width="48" height="48" fill="white"/>
</clipPath>
</defs>
</svg>
