<svg width="90" height="66" viewBox="0 0 90 66" fill="none" xmlns="http://www.w3.org/2000/svg">
<path d="M62.54 29.6055C62.54 29.4531 62.5654 29.3008 62.5654 29.1484C62.5654 20.8965 55.9893 14.2188 47.877 14.2188C42.0244 14.2188 36.9971 17.6973 34.6357 22.7246C33.6074 22.2041 32.4521 21.8994 31.2334 21.8994C27.4883 21.8994 24.3652 24.6797 23.7686 28.3105C19.2744 29.8594 16.0625 34.1631 16.0625 39.2285C16.0625 45.6016 21.1533 50.7812 27.4248 50.7812H40.4375V40.625H34.3184L44.5 29.999L54.6816 40.6123H48.5625V50.7686H62.5654C68.3037 50.7686 72.9375 46.0078 72.9375 40.1807C72.9375 34.3535 68.2783 29.6182 62.54 29.6055Z" fill="black"/>
<rect x="0.5" y="3.5" width="89" height="62" rx="29.5" stroke="black"/>
</svg>
